<?xml version="1.0" encoding="utf-8"?>
<!-- Generator: Adobe Illustrator 14.0.0, SVG Export Plug-In . SVG Version: 6.00 Build 43363)  -->
<!DOCTYPE svg PUBLIC "-//W3C//DTD SVG 1.1//EN" "http://www.w3.org/Graphics/SVG/1.1/DTD/svg11.dtd">
<svg version="1.1" id="Layer_1" xmlns="http://www.w3.org/2000/svg" xmlns:xlink="http://www.w3.org/1999/xlink" x="0px" y="0px"
	 width="60px" height="50px" viewBox="0 0 60 50" enable-background="new 0 0 60 50" xml:space="preserve">
<g>
	<path fill="#FFFFFF" d="M30.504,0.217c-13.586,0-20.437,9.74-20.437,17.863c0,4.918,1.861,9.293,5.855,10.923
		c0.654,0.269,1.242,0.01,1.432-0.715c0.132-0.501,0.445-1.767,0.584-2.296c0.191-0.716,0.117-0.967-0.411-1.593
		c-1.151-1.357-1.888-3.116-1.888-5.608c0-7.226,5.407-13.694,14.078-13.694c7.68,0,11.898,4.692,11.898,10.957
		c0,8.245-3.648,15.205-9.065,15.205c-2.991,0-5.23-2.474-4.513-5.509c0.859-3.622,2.523-7.531,2.523-10.147
		c0-2.34-1.256-4.292-3.855-4.292c-3.059,0-5.516,3.164-5.516,7.401c0,2.699,0.912,4.525,0.912,4.525s-3.129,13.259-3.678,15.582
		c-1.092,4.625-0.164,10.293-0.086,10.865c0.047,0.34,0.482,0.421,0.68,0.165c0.281-0.368,3.925-4.865,5.162-9.358
		c0.352-1.272,2.012-7.86,2.012-7.86c0.994,1.896,3.897,3.563,6.985,3.563c9.192,0,15.429-8.379,15.429-19.596
		C48.606,8.116,41.423,0.217,30.504,0.217z"/>
</g>
</svg>
