<?xml version="1.0" encoding="utf-8"?>
<!-- Generator: Adobe Illustrator 14.0.0, SVG Export Plug-In . SVG Version: 6.00 Build 43363)  -->
<!DOCTYPE svg PUBLIC "-//W3C//DTD SVG 1.1//EN" "http://www.w3.org/Graphics/SVG/1.1/DTD/svg11.dtd">
<svg version="1.1" id="Layer_1" xmlns="http://www.w3.org/2000/svg" xmlns:xlink="http://www.w3.org/1999/xlink" x="0px" y="0px"
	 width="60px" height="50px" viewBox="0 0 60 50" enable-background="new 0 0 60 50" xml:space="preserve">
<g>
	<path fill="#FFFFFF" d="M59.69,5.918c-2.207,1.005-4.58,1.683-7.07,1.987c2.542-1.561,4.494-4.035,5.412-6.984
		c-2.38,1.447-5.013,2.498-7.816,3.064C47.972,1.533,44.772,0,41.23,0c-6.796,0-12.308,5.652-12.308,12.623
		c0,0.989,0.107,1.952,0.319,2.876C19.011,14.973,9.94,9.948,3.868,2.311C2.809,4.174,2.202,6.342,2.202,8.656
		c0,4.379,2.172,8.242,5.476,10.507c-2.017-0.067-3.917-0.634-5.575-1.58c-0.001,0.052-0.001,0.105-0.001,0.16
		c0,6.115,4.242,11.216,9.875,12.377c-1.033,0.288-2.122,0.442-3.245,0.442c-0.793,0-1.563-0.079-2.315-0.227
		C7.983,35.35,12.529,39,17.915,39.102c-4.213,3.386-9.52,5.404-15.287,5.404c-0.993,0-1.974-0.061-2.937-0.177
		C5.14,47.912,11.609,50,18.561,50c22.642,0,35.023-19.233,35.023-35.914c0-0.546-0.013-1.092-0.036-1.633
		C55.953,10.674,58.042,8.45,59.69,5.918z"/>
</g>
</svg>
