<?xml version="1.0" encoding="utf-8"?>
<!-- Generator: Adobe Illustrator 14.0.0, SVG Export Plug-In . SVG Version: 6.00 Build 43363)  -->
<!DOCTYPE svg PUBLIC "-//W3C//DTD SVG 1.1//EN" "http://www.w3.org/Graphics/SVG/1.1/DTD/svg11.dtd">
<svg version="1.1" id="Layer_1" xmlns="http://www.w3.org/2000/svg" xmlns:xlink="http://www.w3.org/1999/xlink" x="0px" y="0px"
	 width="2000px" height="320px" viewBox="-443.965 0 2000 320" enable-background="new -443.965 0 2000 320" xml:space="preserve">
<g>
	<g>
		<line fill="none" x1="-443.967" y1="319.424" x2="-443.967" y2="0"/>
		<path fill="#4A160D" d="M1555.015,61.797c0,182.332,0,0,0,182.332c-75.406-200.332-929.423-26.763-946.134-20.561
			C94.732,365.746-443.964,296.084-443.964,296.084V20.572c0,0,409.396,124.975,1043.61,39.483
			C637.674,58.373,1460.729-76.203,1555.015,61.797z"/>
	</g>
	<g>
		<path fill="#B48967" d="M1556.035,157.613c-504.81-238.11-1003.023,120.147-2000,103.183c0.001-52.979,0,0,0.001-52.979
			c707.627,46.739,1438.719-246.009,2000-118.204C1556.035,157.613,1556.035,89.613,1556.035,157.613z"/>
	</g>
</g>
</svg>
