<?xml version="1.0" encoding="utf-8"?>
<!-- Generator: Adobe Illustrator 14.0.0, SVG Export Plug-In . SVG Version: 6.00 Build 43363)  -->
<!DOCTYPE svg PUBLIC "-//W3C//DTD SVG 1.1//EN" "http://www.w3.org/Graphics/SVG/1.1/DTD/svg11.dtd">
<svg version="1.1" id="Layer_1" xmlns="http://www.w3.org/2000/svg" xmlns:xlink="http://www.w3.org/1999/xlink" x="0px" y="0px"
	 width="2000px" height="390px" viewBox="-370.418 0 2000 390" enable-background="new -370.418 0 2000 390" xml:space="preserve">
<g>
	<g>
		<path fill="#4A160D" d="M1629.672,30.258c0,71.052-0.278,249.07-0.278,318.424c-91.32-200.333-1208.479-79.06-1297.801-65
			c-286.786,47.824-533.641,90.171-702.418,101.995c0-71.345,0.583-152.354,0.583-270.02
			c174.527,13.176,485.544,3.64,1036.267-81.847C935.101-4.682,1364.694-16.026,1629.672,30.258z"/>
	</g>
	<g>
		<path fill="#B48967" d="M1626.495,247.586C1284.369,64.754,198.627,204.414-370.243,270.599c0-19.099,0-32.099,0-55.847
			c562.918-12.789,1546.356-151.354,1996.737-35.166C1626.495,210.5,1626.495,228.5,1626.495,247.586z"/>
	</g>
</g>
</svg>
