<?xml version="1.0" encoding="utf-8"?>
<!-- Generator: Adobe Illustrator 14.0.0, SVG Export Plug-In . SVG Version: 6.00 Build 43363)  -->
<!DOCTYPE svg PUBLIC "-//W3C//DTD SVG 1.1//EN" "http://www.w3.org/Graphics/SVG/1.1/DTD/svg11.dtd">
<svg version="1.1" id="Layer_1" xmlns="http://www.w3.org/2000/svg" xmlns:xlink="http://www.w3.org/1999/xlink" x="0px" y="0px"
	 width="1100px" height="400px" viewBox="79.582 -5 1100 400" enable-background="new 79.582 -5 1100 400" xml:space="preserve">
<g>
	<g>
		<path fill="#4A160D" d="M610.196,33.81c303.426,85.487,474.783,95.023,570.939,81.847c0,117.666,0.321,198.675,0.321,270.02
			C994.082,395,823.046,336.872,726.082,311.5c-179.049-46.092-543.662-54.471-647.376,18.04c0-41.648,0.562-228.23,0.562-299.282
			C225.259-16.026,461.948-4.682,610.196,33.81z"/>
	</g>
	<g>
		<path fill="#B48967" d="M81.02,139.586C329.16,23.398,856.082,293.9,1181.138,217.752c0,23.748,0,56.748,0,75.848
			C916.082,303.5,269.516,64.754,81.019,247.586C81.019,228.5,81.019,170.5,81.02,139.586z"/>
	</g>
</g>
</svg>
