<?xml version="1.0" encoding="utf-8"?>
<!-- Generator: Adobe Illustrator 14.0.0, SVG Export Plug-In . SVG Version: 6.00 Build 43363)  -->
<!DOCTYPE svg PUBLIC "-//W3C//DTD SVG 1.1//EN" "http://www.w3.org/Graphics/SVG/1.1/DTD/svg11.dtd">
<svg version="1.1" id="Layer_1" xmlns="http://www.w3.org/2000/svg" xmlns:xlink="http://www.w3.org/1999/xlink" x="0px" y="0px"
	 width="1100px" height="400px" viewBox="141.697 -12.5 1100 400" enable-background="new 141.697 -12.5 1100 400"
	 xml:space="preserve">
<g>
	<g>
		<line fill="none" x1="218.804" y1="49.955" x2="1169.932" y2="134.034"/>
		<line fill="none" x1="1170.506" y1="49.955" x2="218.804" y2="134.034"/>
		<path fill="#B48967" d="M1169.932,134.034H218.804c0,0-96.026-12.585-25.03-94.982c70.996-82.397,894.588,52.942,1012.58,0
			C1212.848,91.333,1169.932,134.034,1169.932,134.034z"/>
	</g>
</g>
<path fill="#4A160D" d="M1238.174,77.164c-148.361,93.896-983.464-65.636-1095.685,39.757c0,106.429-0.792,270.579-0.792,270.579
	s1005.567,0,1099.411,0C1241.107,255.551,1238.174,217.252,1238.174,77.164z"/>
<path fill="#4A160D" d="M167.617,101.514"/>
<path fill="#4A160D" d="M1231.973,64.566"/>
</svg>
